M48
; DRILL file {KiCad (6.0.0-0)} date Friday, 21 October 2022 at 10:58:44 am
; FORMAT={-:-/ absolute / metric / decimal}
; #@! TF.CreationDate,2022-10-21T10:58:44+11:00
; #@! TF.GenerationSoftware,Kicad,Pcbnew,(6.0.0-0)
; #@! TF.FileFunction,NonPlated,1,2,NPTH
FMAT,2
METRIC
; #@! TA.AperFunction,NonPlated,NPTH,ComponentDrill
T1C0.500
%
G90
G05
T1
X113.75Y-53.25
X113.75Y-54.75
X113.75Y-95.25
X113.75Y-96.75
X114.5Y-53.25
X114.5Y-54.75
X114.5Y-95.25
X114.5Y-96.75
X115.25Y-53.25
X115.25Y-54.75
X115.25Y-95.25
X115.25Y-96.75
X116.0Y-53.25
X116.0Y-54.75
X116.0Y-95.25
X116.0Y-96.75
X116.75Y-53.25
X116.75Y-54.75
X116.75Y-95.25
X116.75Y-96.75
X117.5Y-53.25
X117.5Y-54.75
X117.5Y-95.25
X117.5Y-96.75
X118.25Y-53.25
X118.25Y-54.75
X118.25Y-95.25
X118.25Y-96.75
X131.75Y-53.25
X131.75Y-54.75
X131.75Y-95.25
X131.75Y-96.75
X132.5Y-53.25
X132.5Y-54.75
X132.5Y-95.25
X132.5Y-96.75
X133.25Y-53.25
X133.25Y-54.75
X133.25Y-95.25
X133.25Y-96.75
X134.0Y-53.25
X134.0Y-54.75
X134.0Y-95.25
X134.0Y-96.75
X134.75Y-53.25
X134.75Y-54.75
X134.75Y-95.25
X134.75Y-96.75
X135.5Y-53.25
X135.5Y-54.75
X135.5Y-95.25
X135.5Y-96.75
X136.25Y-53.25
X136.25Y-54.75
X136.25Y-95.25
X136.25Y-96.75
X145.25Y-63.75
X145.25Y-64.5
X145.25Y-65.25
X145.25Y-66.0
X145.25Y-66.75
X145.25Y-67.5
X145.25Y-68.25
X145.25Y-81.75
X145.25Y-82.5
X145.25Y-83.25
X145.25Y-84.0
X145.25Y-84.75
X145.25Y-85.5
X145.25Y-86.25
X146.75Y-63.75
X146.75Y-64.5
X146.75Y-65.25
X146.75Y-66.0
X146.75Y-66.75
X146.75Y-67.5
X146.75Y-68.25
X146.75Y-81.75
X146.75Y-82.5
X146.75Y-83.25
X146.75Y-84.0
X146.75Y-84.75
X146.75Y-85.5
X146.75Y-86.25
X155.75Y-53.25
X155.75Y-54.75
X155.75Y-95.25
X155.75Y-96.75
X156.5Y-53.25
X156.5Y-54.75
X156.5Y-95.25
X156.5Y-96.75
X157.25Y-53.25
X157.25Y-54.75
X157.25Y-95.25
X157.25Y-96.75
X158.0Y-53.25
X158.0Y-54.75
X158.0Y-95.25
X158.0Y-96.75
X158.75Y-53.25
X158.75Y-54.75
X158.75Y-95.25
X158.75Y-96.75
X159.5Y-53.25
X159.5Y-54.75
X159.5Y-95.25
X159.5Y-96.75
X160.25Y-53.25
X160.25Y-54.75
X160.25Y-95.25
X160.25Y-96.75
X173.75Y-53.25
X173.75Y-54.75
X173.75Y-95.25
X173.75Y-96.75
X174.5Y-53.25
X174.5Y-54.75
X174.5Y-95.25
X174.5Y-96.75
X175.25Y-53.25
X175.25Y-54.75
X175.25Y-95.25
X175.25Y-96.75
X176.0Y-53.25
X176.0Y-54.75
X176.0Y-95.25
X176.0Y-96.75
X176.75Y-53.25
X176.75Y-54.75
X176.75Y-95.25
X176.75Y-96.75
X177.5Y-53.25
X177.5Y-54.75
X177.5Y-95.25
X177.5Y-96.75
X178.25Y-53.25
X178.25Y-54.75
X178.25Y-95.25
X178.25Y-96.75
X187.25Y-63.75
X187.25Y-64.5
X187.25Y-65.25
X187.25Y-66.0
X187.25Y-66.75
X187.25Y-67.5
X187.25Y-68.25
X187.25Y-81.75
X187.25Y-82.5
X187.25Y-83.25
X187.25Y-84.0
X187.25Y-84.75
X187.25Y-85.5
X187.25Y-86.25
X188.75Y-63.75
X188.75Y-64.5
X188.75Y-65.25
X188.75Y-66.0
X188.75Y-66.75
X188.75Y-67.5
X188.75Y-68.25
X188.75Y-81.75
X188.75Y-82.5
X188.75Y-83.25
X188.75Y-84.0
X188.75Y-84.75
X188.75Y-85.5
X188.75Y-86.25
X197.75Y-53.25
X197.75Y-54.75
X197.75Y-95.25
X197.75Y-96.75
X198.5Y-53.25
X198.5Y-54.75
X198.5Y-95.25
X198.5Y-96.75
X199.25Y-53.25
X199.25Y-54.75
X199.25Y-95.25
X199.25Y-96.75
X200.0Y-53.25
X200.0Y-54.75
X200.0Y-95.25
X200.0Y-96.75
X200.75Y-53.25
X200.75Y-54.75
X200.75Y-95.25
X200.75Y-96.75
X201.5Y-53.25
X201.5Y-54.75
X201.5Y-95.25
X201.5Y-96.75
X202.25Y-53.25
X202.25Y-54.75
X202.25Y-95.25
X202.25Y-96.75
X215.75Y-53.25
X215.75Y-54.75
X215.75Y-95.25
X215.75Y-96.75
X216.5Y-53.25
X216.5Y-54.75
X216.5Y-95.25
X216.5Y-96.75
X217.25Y-53.25
X217.25Y-54.75
X217.25Y-95.25
X217.25Y-96.75
X218.0Y-53.25
X218.0Y-54.75
X218.0Y-95.25
X218.0Y-96.75
X218.75Y-53.25
X218.75Y-54.75
X218.75Y-95.25
X218.75Y-96.75
X219.5Y-53.25
X219.5Y-54.75
X219.5Y-95.25
X219.5Y-96.75
X220.25Y-53.25
X220.25Y-54.75
X220.25Y-95.25
X220.25Y-96.75
T0
M30
