M48
; DRILL file {KiCad (6.0.0-0)} date Friday, 21 October 2022 at 10:58:44 am
; FORMAT={-:-/ absolute / metric / decimal}
; #@! TF.CreationDate,2022-10-21T10:58:44+11:00
; #@! TF.GenerationSoftware,Kicad,Pcbnew,(6.0.0-0)
; #@! TF.FileFunction,Plated,1,2,PTH
FMAT,2
METRIC
; #@! TA.AperFunction,Plated,PTH,ViaDrill
T1C0.200
%
G90
G05
T1
X106.475Y-67.25
X106.5Y-85.25
X107.765Y-85.75
X108.0Y-67.75
X110.0Y-61.0
X118.25Y-77.5
X118.25Y-79.25
X120.0Y-77.5
X120.0Y-79.25
X120.5Y-65.225
X120.5Y-93.775
X121.75Y-77.5
X121.75Y-79.25
X128.25Y-70.75
X128.25Y-72.5
X129.5Y-56.225
X129.5Y-84.775
X130.0Y-70.75
X130.0Y-72.5
X131.75Y-70.75
X131.75Y-72.5
X140.0Y-89.0
X142.0Y-82.5
X142.475Y-64.5
X143.5Y-82.75
X143.524Y-64.75
X148.475Y-67.25
X148.5Y-85.25
X149.765Y-85.75
X150.0Y-67.75
X152.0Y-61.0
X160.25Y-77.5
X160.25Y-79.25
X162.0Y-77.5
X162.0Y-79.25
X162.5Y-65.225
X162.5Y-93.775
X163.75Y-77.5
X163.75Y-79.25
X170.25Y-70.75
X170.25Y-72.5
X171.5Y-56.225
X171.5Y-84.775
X172.0Y-70.75
X172.0Y-72.5
X173.75Y-70.75
X173.75Y-72.5
X182.0Y-89.0
X184.0Y-82.5
X184.475Y-64.5
X185.5Y-82.75
X185.524Y-64.75
X190.475Y-67.25
X190.5Y-85.25
X191.765Y-85.75
X192.0Y-67.75
X194.0Y-61.0
X202.25Y-77.5
X202.25Y-79.25
X204.0Y-77.5
X204.0Y-79.25
X204.5Y-65.225
X204.5Y-93.775
X205.75Y-77.5
X205.75Y-79.25
X212.25Y-70.75
X212.25Y-72.5
X213.5Y-56.225
X213.5Y-84.775
X214.0Y-70.75
X214.0Y-72.5
X215.75Y-70.75
X215.75Y-72.5
X224.0Y-89.0
X226.0Y-82.5
X226.475Y-64.5
X227.5Y-82.75
X227.524Y-64.75
T0
M30
